<svg width="643" height="377" viewBox="0 0 643 377" fill="none" xmlns="http://www.w3.org/2000/svg">
<g filter="url(#filter0_b)">
<path d="M75.0264 346.908C74.5291 364.888 91.8643 376.936 109.851 376.843L266.733 376.034L316.66 376.011H333.193L383.214 375.987L592.221 375.923C604.568 375.919 616.36 370.245 621.815 359.169C633.61 335.222 647.043 289.165 608.225 244.737C550.325 178.476 520.941 235.056 478.166 123.403C384.363 -121.619 16.7005 41.054 132.853 240.827C169.889 304.511 76.8255 281.857 75.0264 346.908Z" fill="white" fill-opacity="0.3"/>
<path d="M75.0264 346.908C74.5291 364.888 91.8643 376.936 109.851 376.843L266.733 376.034L316.66 376.011H333.193L383.214 375.987L592.221 375.923C604.568 375.919 616.36 370.245 621.815 359.169C633.61 335.222 647.043 289.165 608.225 244.737C550.325 178.476 520.941 235.056 478.166 123.403C384.363 -121.619 16.7005 41.054 132.853 240.827C169.889 304.511 76.8255 281.857 75.0264 346.908Z" fill="url(#paint0_linear)"/>
<path d="M266.733 375.034H266.728L109.846 375.843C92.1837 375.934 75.5503 364.137 76.026 346.935C76.4679 330.957 82.4961 320.42 90.7195 312.568C97.8872 305.725 106.712 300.921 115.113 296.349C116.417 295.639 117.711 294.935 118.987 294.23C128.374 289.039 136.905 283.728 140.606 275.532C144.351 267.24 143.033 256.343 133.717 240.324C104.844 190.665 106.063 143.396 125.511 104.188C144.98 64.9381 182.763 33.682 227.142 16.2476C271.516 -1.18489 322.389 -4.76036 367.973 11.2325C413.528 27.2152 453.882 62.7674 477.232 123.761L477.232 123.761C487.946 151.725 497.851 169.24 507.628 180.793C517.43 192.376 527.069 197.925 537.147 202.018C540.824 203.512 544.574 204.816 548.392 206.145C549.777 206.626 551.17 207.111 552.573 207.609C557.859 209.487 563.316 211.568 569.046 214.421C580.488 220.118 593.078 228.923 607.472 245.395C645.902 289.379 632.634 334.939 620.918 358.727C615.671 369.381 604.285 374.919 592.221 374.923L383.213 374.987L333.193 375.011H316.66L266.733 375.034Z" stroke="url(#paint1_linear)" stroke-width="2"/>
</g>
<path d="M291.894 130.077C291.894 130.077 285.052 152.584 281.031 150.997C277.036 149.435 290.42 126.492 290.42 126.492C290.42 126.492 276.636 107.237 268.97 104.011C268.97 104.011 270.118 130.256 266.597 127.721C263.101 125.187 260.679 97.9426 260.679 97.9426C260.679 97.9426 243.549 83.9622 234.509 93.8714C225.469 103.755 227.417 112.205 229.839 114.484C232.286 116.737 250.466 126.339 248.743 128.49C247.02 130.64 232.836 127.85 227.142 121.96C227.142 121.96 224.795 145.056 235.158 149.46C245.521 153.864 251.814 149.281 258.157 152.123C264.5 154.965 268.096 159.088 264.175 159.113C260.255 159.139 250.516 152.379 243.374 153.992C236.232 155.606 230.863 156.066 239.004 162.98C247.145 169.893 264.2 177.652 271.242 172.223C271.542 171.993 271.842 171.762 272.116 171.532C271.617 172.019 271.242 172.223 271.242 172.223C272.416 174.144 272.441 180.34 272.291 185C272.216 185.769 272.166 186.844 272.141 188.355C272.091 189.02 272.066 189.558 272.041 189.942C270.968 199.979 261.853 213.345 261.853 213.345L263.526 214.958C275.338 202.924 273.864 186.946 273.864 186.946C273.814 174.886 278.284 166.821 278.284 166.821C278.284 166.821 301.108 166.309 300.01 148.129C300.01 148.078 297.787 136.069 291.894 130.077Z" fill="#DFEBFD"/>
<path d="M224.595 213.96C224.595 213.96 258.182 230.296 254.836 236.518C251.49 242.74 218.677 215.547 218.677 215.547C218.677 215.547 185.49 233.855 178.697 245.685C178.697 245.685 219.951 249.731 215.206 254.903C210.461 260.075 167.36 257.924 167.36 257.924C167.36 257.924 141.664 282.915 155.074 299.994C168.484 317.073 182.118 315.793 186.214 312.31C190.284 308.802 209.412 281.097 212.384 284.4C215.356 287.703 207.764 310.39 197.326 318.404C197.326 318.404 232.886 327.469 242.1 311.465C251.315 295.462 245.571 284.093 251.44 274.286C257.308 264.505 264.55 259.537 263.701 265.99C262.852 272.443 250.091 286.91 250.99 299.021C251.889 311.132 251.415 320.043 264.051 308.213C276.686 296.384 292.643 270.138 285.751 257.361C285.451 256.798 285.152 256.286 284.877 255.773C285.526 256.721 285.751 257.361 285.751 257.361C289.022 255.876 298.711 257.233 305.953 258.539C307.127 258.846 308.825 259.179 311.147 259.537C312.171 259.742 313.02 259.922 313.594 260.05C329.027 264.07 347.831 282.045 347.831 282.045L350.702 279.663C334.546 257.566 309.274 256.362 309.274 256.362C290.396 253.751 278.834 244.584 278.834 244.584C278.834 244.584 283.179 206.97 254.536 204.665C254.561 204.691 235.308 205.587 224.595 213.96Z" fill="#CDE0FB"/>
<path d="M481.004 168.177C481.629 148.128 449.44 144.39 449.44 144.39C449.44 144.39 419.125 170.302 412.857 169.176C406.614 168.075 434.557 141.829 434.557 141.829C423.245 137.015 389.184 142.367 389.184 142.367C389.184 142.367 379.819 180.75 374.026 178.087C368.232 175.424 384.014 144.543 384.014 144.543C371.703 144.492 357.145 154.683 357.145 154.683C337.442 172.53 360.816 197.572 360.816 197.572C360.816 197.572 357.295 210.81 344.909 223.357C344.909 223.357 342.312 225.585 339.09 229.733L342.162 230.706C342.661 229.938 343.186 229.221 343.735 228.529L343.76 228.504C344.11 228.094 344.634 227.479 345.258 226.762C346.757 225.175 347.805 223.971 348.505 223.101C353.074 218.057 359.442 211.63 362.614 210.862C362.614 210.862 362.414 210.273 362.389 209.197C362.464 209.735 362.539 210.273 362.614 210.862C364.437 224.074 390.182 234.239 405.765 235.75C421.347 237.261 416.228 231.013 410.384 221.667C404.541 212.321 387.46 208.941 383.365 204.716C379.27 200.491 387.236 200.03 396.775 203.846C406.314 207.686 408.212 219.234 423.545 225.713C438.877 232.191 459.978 205.51 459.978 205.51C448.042 205.561 430.337 193.271 430.711 189.174C431.111 185.077 459.953 194.525 464.798 194.781C469.717 194.986 480.38 188.226 481.004 168.177Z" fill="#CDE0FB"/>
<path d="M376.448 87.2652C379.045 94.3065 401.395 112.819 401.395 112.819C401.395 112.819 408.686 106.75 415.429 100.221C420.473 95.3819 425.193 90.2866 426.316 87.2908C428.963 80.3006 426.142 70.2635 416.378 68.5736C406.664 66.8837 401.395 77.3049 401.395 77.3049C401.395 77.3049 396.151 66.8581 386.362 68.5736C384.664 68.8809 383.165 69.4186 381.892 70.1867C375.824 73.6434 374.3 81.5041 376.448 87.2652Z" fill="#FF6E87"/>
<path d="M298.811 23.7636C298.337 22.3297 292.818 6.96649 269.27 13.0349C269.27 13.0349 281.131 11.0377 284.577 15.6211C284.577 15.6211 274.963 11.5498 269.195 15.493C263.426 19.4363 262.902 31.9573 263.926 35.7212C264.95 39.4852 271.892 50.5467 276.212 50.3931C277.86 50.3419 279.583 49.7017 281.106 48.9592C280.507 51.0076 280.008 53.2097 279.583 55.6166C275.812 77.9444 290.795 94.2549 298.062 89.7996C302.732 86.9574 306.652 95.356 306.652 95.356L344.235 40.0741C344.235 40.0741 315.442 7.17133 298.811 23.7636Z" fill="#2C3A64"/>
<path d="M351.477 238.439C351.277 244.38 361.565 263.788 367.484 280.56C371.279 291.391 375.05 301.403 377.073 306.728C378.346 310.057 379.32 313.463 380.019 316.945C381.767 325.804 384.639 344.368 385.588 374.506C385.588 374.915 385.613 375.325 385.613 375.709L332.448 375.683L332.248 374.48L331.075 367.925V367.899L332.199 339.426L328.852 334.126L319.238 337.839L314.993 374.48L314.868 375.658L261.604 375.632C261.604 375.248 261.604 374.838 261.604 374.454C261.579 364.904 261.579 356.761 261.579 349.822C261.554 326.137 265.699 302.657 273.84 280.483C280.033 263.635 289.172 245.993 287.25 237.722C286.8 235.802 280.357 219.005 277.311 203.078C276.986 201.414 276.687 199.75 276.362 198.085C276.287 198.418 276.212 198.725 276.137 199.058C271.218 220.157 264.775 247.529 263.576 252.061C261.554 259.589 242.975 317.534 242.975 317.534H233.935C233.935 317.534 239.579 260.741 244.673 246.249C249.767 231.756 252.264 177.627 257.109 154.095C259.631 141.882 263.601 136.53 270.119 133.022C273.465 131.23 277.461 129.898 282.305 128.388C285.352 127.44 288.723 126.39 292.469 125.11C297.863 123.241 302.882 120.399 304.405 114.766C305.754 109.747 306.702 103.141 306.752 95.2033C306.752 93.5901 306.727 91.9514 306.678 90.2358L308.276 90.4919L309.799 90.7479L335.12 94.896C335.12 94.896 335.12 95.2033 335.095 95.7922C335.095 95.869 335.095 95.9714 335.095 96.0738V96.1251C335.095 96.2275 335.095 96.3043 335.095 96.4067C335.095 96.5859 335.095 96.7908 335.07 96.9956C335.07 97.1493 335.07 97.3029 335.07 97.4565C335.07 97.9686 335.045 98.5576 335.045 99.1977C335.045 99.3513 335.045 99.5306 335.045 99.7098C335.045 99.7866 335.045 99.889 335.045 99.9658C335.045 100.222 335.045 100.478 335.045 100.76V100.811C335.045 101.297 335.045 101.835 335.02 102.347C335.02 103.474 335.02 104.652 335.02 105.906C335.02 106.444 335.02 106.982 335.045 107.519C335.045 107.647 335.045 107.775 335.045 107.903C335.045 108.441 335.07 108.979 335.07 109.491C335.095 110.208 335.095 110.925 335.12 111.642C335.27 116.276 334.621 119.708 335.844 122.089C337.193 124.675 344.31 126.519 352.101 129.898C356.096 131.614 360.267 133.739 363.938 136.556C368.557 140.089 372.403 144.749 374.101 151.1C380.319 174.272 384.414 231.807 389.509 246.3C394.603 260.793 400.246 317.585 400.246 317.585H391.207C391.207 317.585 372.628 259.64 370.605 252.112C369.981 249.782 367.983 241.409 365.511 230.962C363.263 221.412 360.616 210.145 358.269 200.159C358.044 199.212 357.819 198.264 357.62 197.343C357.495 199.954 357.395 202.592 357.27 205.152C356.496 220.874 351.602 234.265 351.477 238.439Z" fill="#FFB27D"/>
<path d="M335.045 94.9725C335.045 94.9725 334.746 103.602 335.02 111.693C320.087 111.847 311.697 98.1989 308.176 90.5684L335.045 94.9725Z" fill="#ED985F"/>
<path d="M340.314 102.449C340.314 102.449 305.054 104.395 304.205 81.8623C303.356 59.3296 298.237 44.4017 320.711 42.1996C343.186 39.9976 347.905 48.4217 349.953 55.8729C352.026 63.324 349.454 101.374 340.314 102.449Z" fill="#FFB27D"/>
<path d="M348.455 43.3777C342.761 36.7972 338.691 38.4616 336.443 40.5868C316.766 30.4471 304.904 47.0137 304.904 47.0137C303.131 63.2729 292.094 72.9773 292.094 72.9773C292.094 72.9773 298.686 76.7925 313.37 72.3116C317.865 70.9545 321.785 67.4978 325.081 63.3498C319.463 73.8991 311.572 81.6318 311.572 81.6318C328.977 72.542 335.17 47.0137 335.769 44.3251C337.992 46.2199 342.412 50.3679 343.86 54.5416C345.833 60.2259 347.056 72.0043 350.403 71.4666C350.378 71.4922 356.995 53.2357 348.455 43.3777Z" fill="#2C3A64"/>
<path d="M234.06 315.741C234.06 315.741 226.319 328.621 226.019 332.41C225.719 336.2 226.793 349.131 226.793 349.131C226.793 349.131 229.665 348.311 230.264 342.243C230.864 336.174 239.953 332.513 241.776 328.518C243.599 324.524 242.9 316.253 242.9 316.253L234.06 315.741Z" fill="#FFB27D"/>
<path d="M243.049 317.149C243.049 317.149 245.547 327.494 244.473 330.977C243.399 334.459 242.225 339.964 240.527 339.401C238.829 338.838 237.381 328.39 237.381 328.39L243.049 317.149Z" fill="#FFB27D"/>
<path d="M227.917 332.718C227.817 333.255 222.922 347.671 222.922 347.671C222.922 347.671 226.968 347.697 227.242 345.699C227.517 343.677 227.917 332.718 227.917 332.718Z" fill="#FFB27D"/>
<path d="M399.947 317.149C399.947 317.149 407.688 330.029 407.988 333.819C408.287 337.608 407.213 350.539 407.213 350.539C407.213 350.539 404.342 349.72 403.742 343.651C403.143 337.583 394.053 333.921 392.231 329.927C390.408 325.932 391.007 317.149 391.007 317.149H399.947Z" fill="#FFB27D"/>
<path d="M390.932 318.558C390.932 318.558 388.435 328.902 389.508 332.385C390.582 335.867 391.756 341.372 393.454 340.809C395.152 340.245 396.6 329.799 396.6 329.799L390.932 318.558Z" fill="#FFB27D"/>
<path d="M406.064 334.1C406.164 334.638 411.059 349.054 411.059 349.054C411.059 349.054 407.013 349.079 406.739 347.082C406.464 345.085 406.064 334.1 406.064 334.1Z" fill="#FFB27D"/>
<path d="M273.79 280.56C273.79 280.56 310.273 292.056 367.483 280.56C367.483 280.56 383.74 304.987 390.457 374.531H332.123L326.705 340.988L320.062 341.09L316.167 374.531H256.334C256.334 374.531 258.033 312.003 273.79 280.56Z" fill="#8C9FFC"/>
<path d="M358.818 167.256C359.467 174.477 361.715 181.339 358.219 200.185C357.919 201.772 357.595 203.437 357.22 205.178C357.22 205.178 322.235 216.854 277.91 205.178C277.91 205.178 277.66 204.435 277.261 203.129C276.936 202.105 276.537 200.722 276.087 199.109C274.264 192.631 271.842 182.44 272.466 175.988C273.415 165.95 280.008 146.029 270.069 133.124C273.415 131.332 277.411 130 282.255 128.49C282.255 128.49 291.07 156.246 303.131 157.705C315.168 159.165 325.781 158.32 325.781 158.32C325.781 158.32 340.015 158.807 345.383 148.769C349.379 141.318 351.851 130.897 352.051 129.949C356.046 131.665 360.217 133.79 363.887 136.607C362.339 140.371 357.694 155.119 358.818 167.256Z" fill="white"/>
<path d="M388.909 135.787C388.909 135.761 388.884 135.736 388.884 135.685C388.909 135.685 388.934 135.71 388.909 135.787Z" fill="white"/>
<path d="M296.888 228.094C287.873 238.439 287.549 253.418 295.889 262.201C296.414 262.764 297.338 262.687 297.912 262.047C298.461 261.407 298.511 260.485 297.987 259.922C290.695 252.189 291.02 239.053 298.936 229.963C307.177 220.489 320.611 218.953 328.877 226.507L330.9 224.177C321.535 215.599 306.278 217.34 296.888 228.094Z" fill="white"/>
<path d="M326.28 228.351L332.748 228.786C333.272 228.812 333.721 228.3 333.597 227.762L332.173 221.566C332.048 221.079 331.449 220.951 331.074 221.361L325.93 227.25C325.556 227.685 325.755 228.325 326.28 228.351Z" fill="white"/>
<path d="M340.59 266.092C349.604 255.748 349.929 240.769 341.588 231.986C341.064 231.423 340.14 231.5 339.566 232.14C339.016 232.78 338.966 233.702 339.491 234.265C346.783 241.998 346.458 255.133 338.542 264.223C330.301 273.697 316.866 275.234 308.601 267.68L306.578 270.01C315.967 278.613 331.225 276.847 340.59 266.092Z" fill="white"/>
<path d="M311.197 265.862L304.729 265.427C304.205 265.401 303.756 265.913 303.88 266.451L305.304 272.648C305.429 273.134 306.028 273.262 306.403 272.853L311.547 266.963C311.921 266.528 311.722 265.888 311.197 265.862Z" fill="white"/>
<path d="M142.574 350.795C142.574 342.038 137.854 334.407 130.862 330.464V327.571H119.899C107.389 327.571 97.25 337.967 97.25 350.795C97.25 363.623 107.389 374.019 119.899 374.019H130.862V371.125C137.829 367.156 142.574 359.552 142.574 350.795Z" fill="#CDE0FB"/>
<path d="M130.862 374.019C143.371 374.019 153.511 363.621 153.511 350.795C153.511 337.969 143.371 327.571 130.862 327.571C118.353 327.571 108.212 337.969 108.212 350.795C108.212 363.621 118.353 374.019 130.862 374.019Z" fill="#84B7FF"/>
<path d="M201.157 360.244H130.612C125.518 360.244 121.373 355.993 121.373 350.77C121.373 345.546 125.518 341.295 130.612 341.295H201.157C206.251 341.295 210.397 345.546 210.397 350.77C210.397 356.019 206.251 360.244 201.157 360.244Z" fill="#4894FF"/>
<path d="M201.482 350.795C201.482 342.038 196.762 334.408 189.77 330.465V327.571H178.808C166.297 327.571 156.158 337.967 156.158 350.795C156.158 363.624 166.297 374.02 178.808 374.02H189.77V371.126C196.762 367.157 201.482 359.552 201.482 350.795Z" fill="#CDE0FB"/>
<path d="M189.77 374.019C202.279 374.019 212.419 363.621 212.419 350.795C212.419 337.969 202.279 327.571 189.77 327.571C177.261 327.571 167.121 337.969 167.121 350.795C167.121 363.621 177.261 374.019 189.77 374.019Z" fill="#84B7FF"/>
<path d="M191.778 360.771C197.158 360.225 201.087 355.31 200.555 349.794C200.022 344.277 195.229 340.248 189.849 340.795C184.47 341.341 180.54 346.256 181.073 351.772C181.606 357.288 186.399 361.317 191.778 360.771Z" fill="#CDE0FB"/>
<path d="M385.413 95.8687L383.116 83.4501L382.117 88.7504H368.532V87.9054H381.443L383.116 79.0203L385.538 92.0023L386.612 87.6237H388.959L390.557 79.9677L392.605 91.6182L393.679 87.1628H398.523L400.321 81.1712L401.869 91.6694L403.118 87.1628H407.138L408.312 80.5823L410.834 90.9268L411.758 87.1628H416.952L417.202 90.3123L420.074 78.8667L421.947 87.1884H430.362V88.0334H421.297L420.024 82.4002L416.827 95.2541L416.203 88.0078H412.407L410.834 94.3835L408.437 84.5255L407.813 88.0078H403.742L401.62 95.587L400.046 84.9352L399.148 88.0078H394.328L392.48 95.6382L390.482 84.295L389.633 88.4431H387.261L385.413 95.8687Z" fill="white"/>
<path d="M199.975 152.908L190.615 169.819L170.926 169.966L160.596 153.203L169.956 136.292L189.646 136.145L199.975 152.908ZM189.823 168.553L198.47 152.931L188.91 137.422L170.691 137.555L162.045 153.177L171.605 168.686L189.823 168.553Z" fill="#D0E6FF"/>
<path d="M201.954 216.853L200.862 217.504L191.095 201.68L172.898 201.826L164.07 217.775L162.928 217.143L172.107 200.56L191.796 200.413L201.954 216.853Z" fill="#D0E6FF"/>
<path d="M173.249 201.192L163.889 218.102L144.565 218.223L144.537 216.952L163.11 216.815L171.756 201.193L162.196 185.683L143.999 185.829L135.171 201.778L134.028 201.146L143.207 184.563L162.897 184.416L173.249 201.192Z" fill="#D0E6FF"/>
<path d="M218.1 153.578L198.764 153.722L188.435 136.958L197.795 120.048L217.131 119.905L217.159 121.176L198.587 121.314L189.928 136.957L199.477 152.433L218.072 152.307L218.1 153.578Z" fill="#D0E6FF"/>
<path d="M201.061 185.048L191.883 201.631L190.74 200.998L199.568 185.049L190.008 169.54L171.812 169.686L163.153 185.329L172.897 201.14L171.805 201.792L161.66 185.33L171.02 168.42L190.71 168.273L201.061 185.048Z" fill="#D0E6FF"/>
<path d="M198.768 120.986L189.577 137.591L169.865 137.726L159.535 120.962L168.726 104.358L169.869 104.99L161.028 120.961L170.578 136.437L188.785 136.325L197.625 120.354L198.768 120.986Z" fill="#D0E6FF"/>
<path d="M170.251 170.392C169.444 169.945 169.145 168.952 169.581 168.165C170.016 167.378 171.017 167.104 171.823 167.551C172.63 167.997 172.929 168.991 172.493 169.777C172.07 170.542 171.057 170.838 170.251 170.392Z" fill="#D0E6FF"/>
<path d="M161.326 186.515C160.519 186.069 160.22 185.075 160.656 184.289C161.091 183.502 162.092 183.228 162.898 183.674C163.705 184.121 164.004 185.114 163.569 185.901C163.133 186.687 162.133 186.962 161.326 186.515Z" fill="#D0E6FF"/>
<path d="M190.404 202.61C189.598 202.164 189.299 201.17 189.734 200.384C190.169 199.597 191.17 199.323 191.976 199.77C192.783 200.216 193.082 201.209 192.647 201.996C192.211 202.783 191.211 203.057 190.404 202.61Z" fill="#D0E6FF"/>
<path d="M200.221 218.662C199.414 218.215 199.115 217.222 199.55 216.435C199.986 215.648 200.986 215.374 201.793 215.821C202.6 216.267 202.899 217.261 202.463 218.048C202.04 218.812 201.027 219.108 200.221 218.662Z" fill="#D0E6FF"/>
<path d="M201.584 185.851C202.018 185.066 201.718 184.069 200.914 183.624C200.109 183.179 199.105 183.454 198.671 184.238C198.237 185.023 198.537 186.02 199.341 186.465C200.145 186.91 201.149 186.635 201.584 185.851Z" fill="#D0E6FF"/>
<path d="M189.228 170.421C188.422 169.974 188.123 168.981 188.558 168.194C188.994 167.408 189.994 167.134 190.801 167.58C191.607 168.027 191.906 169.02 191.471 169.807C191.048 170.571 190.035 170.867 189.228 170.421Z" fill="#D0E6FF"/>
<path d="M198.093 154.406C197.286 153.96 196.987 152.966 197.422 152.18C197.858 151.393 198.858 151.119 199.665 151.565C200.472 152.012 200.771 153.005 200.335 153.792C199.9 154.579 198.899 154.853 198.093 154.406Z" fill="#D0E6FF"/>
<path d="M173.863 201.617C174.297 200.833 173.997 199.836 173.193 199.391C172.388 198.945 171.384 199.22 170.95 200.005C170.516 200.789 170.816 201.786 171.62 202.231C172.425 202.677 173.429 202.402 173.863 201.617Z" fill="#D0E6FF"/>
<path d="M162.478 218.748C161.671 218.302 161.372 217.309 161.808 216.522C162.243 215.735 163.244 215.461 164.05 215.908C164.857 216.354 165.156 217.348 164.72 218.134C164.285 218.921 163.284 219.195 162.478 218.748Z" fill="#D0E6FF"/>
<path d="M144.323 219.031C143.516 218.585 143.217 217.591 143.652 216.805C144.088 216.018 145.088 215.744 145.895 216.191C146.702 216.637 147.001 217.631 146.566 218.417C146.13 219.204 145.129 219.478 144.323 219.031Z" fill="#D0E6FF"/>
<path d="M134.069 202.396C133.262 201.949 132.963 200.956 133.398 200.169C133.833 199.382 134.834 199.108 135.641 199.555C136.448 200.001 136.747 200.995 136.311 201.782C135.898 202.581 134.875 202.842 134.069 202.396Z" fill="#D0E6FF"/>
<path d="M169.417 138.534C168.61 138.087 168.311 137.094 168.747 136.307C169.182 135.52 170.183 135.247 170.99 135.693C171.796 136.14 172.095 137.133 171.66 137.92C171.247 138.719 170.224 138.98 169.417 138.534Z" fill="#D0E6FF"/>
<path d="M160.553 154.548C159.746 154.102 159.447 153.108 159.882 152.322C160.318 151.535 161.319 151.261 162.125 151.708C162.932 152.154 163.231 153.148 162.796 153.934C162.395 154.712 161.36 154.995 160.553 154.548Z" fill="#D0E6FF"/>
<path d="M188.329 138.47C187.522 138.023 187.223 137.03 187.659 136.243C188.094 135.457 189.095 135.183 189.902 135.629C190.708 136.076 191.007 137.069 190.572 137.856C190.136 138.642 189.136 138.916 188.329 138.47Z" fill="#D0E6FF"/>
<path d="M197.387 122.106C196.58 121.659 196.281 120.666 196.717 119.879C197.152 119.092 198.153 118.818 198.96 119.265C199.766 119.711 200.065 120.705 199.63 121.491C199.217 122.29 198.194 122.552 197.387 122.106Z" fill="#D0E6FF"/>
<path d="M216.225 121.858C215.419 121.412 215.12 120.419 215.555 119.632C215.991 118.845 216.991 118.571 217.798 119.018C218.604 119.464 218.903 120.457 218.468 121.244C218.045 122.009 217.032 122.305 216.225 121.858Z" fill="#D0E6FF"/>
<path d="M168.466 106.097C167.659 105.651 167.36 104.657 167.795 103.871C168.231 103.084 169.231 102.81 170.038 103.256C170.845 103.703 171.144 104.696 170.708 105.483C170.295 106.282 169.272 106.544 168.466 106.097Z" fill="#D0E6FF"/>
<path d="M219.337 153.777C219.771 152.993 219.471 151.996 218.666 151.551C217.862 151.106 216.858 151.381 216.424 152.165C215.99 152.95 216.29 153.946 217.094 154.392C217.898 154.837 218.902 154.562 219.337 153.777Z" fill="#D0E6FF"/>
<path d="M511.904 245.667C511.76 245.569 508.424 243.319 505.089 238.998C500.646 233.236 498.385 226.526 498.561 219.62C498.802 209.872 502.202 204.09 505.008 200.952C508.504 197.045 513.059 195.013 517.501 195.368C526.017 196.059 525.745 207.247 525.745 207.366L524.734 207.306C524.75 206.892 524.959 197.223 517.437 196.611C513.268 196.276 508.986 198.19 505.682 201.86C503.02 204.84 499.796 210.326 499.572 219.64C499.187 235.564 512.257 244.483 512.402 244.562L511.904 245.667ZM525.231 207.326L524.718 207.306L525.231 207.326Z" fill="#2E9ED9"/>
<path d="M553 252.716V365.062C553 370.294 549.557 374.53 545.305 374.53H507.089C502.08 374.53 498 369.51 498 363.347V253.076C498 243.079 503.268 234.606 510.566 231.62C514.147 230.158 516.574 226.028 516.781 221.389L516.953 217.513H534.099L534.34 221.304C534.649 226.049 537.214 230.116 540.881 231.683C547.922 234.712 553 242.994 553 252.716Z" fill="white"/>
<path opacity="0.5" d="M553 252.716V365.062C553 370.294 549.557 374.53 545.305 374.53H518.037C513.028 374.53 508.948 369.51 508.948 363.347V253.076C508.948 243.079 514.216 234.606 521.515 231.62C525.095 230.158 527.523 226.028 527.712 221.389L527.884 217.513H534.064L534.305 221.304C534.615 226.049 537.18 230.116 540.847 231.683C547.922 234.712 553 242.994 553 252.716Z" fill="#AFCDFB"/>
<path d="M551.709 266.103V362.797C551.709 367.774 548.421 371.82 544.375 371.82H538.867C534.236 371.82 531.757 370.528 529.192 368.007C526.627 365.487 520.964 365.889 519.087 368.855C517.194 371.799 511.806 371.82 511.806 371.82H507.967C503.181 371.82 499.308 367.054 499.308 361.166V265.405C504.128 264.197 511.307 263.541 520.637 265.765C531.62 268.391 543.721 267.374 551.709 266.103Z" fill="#AFCDFB"/>
<path d="M535.269 219.44H515.731V211.455C515.731 208.511 517.676 206.117 520.069 206.117H530.759C533.255 206.117 535.269 208.595 535.269 211.667V219.44Z" fill="#56C3FC"/>
<path d="M553 250.788H498V351.612H553V250.788Z" fill="#FF87E5"/>
<path d="M548.523 250.835H508.982V351.659H548.523V250.835Z" fill="#FF9CE9"/>
<path d="M535.545 221.03H515.352C514.113 221.03 513.097 219.78 513.097 218.255C513.097 216.729 514.113 215.479 515.352 215.479H535.545C536.784 215.479 537.8 216.729 537.8 218.255C537.8 219.78 536.784 221.03 535.545 221.03Z" fill="#2E9ED9"/>
<path d="M497.536 367.285C497.536 367.285 493.64 371.868 483.876 373.404C479.781 374.045 474.637 374.147 468.319 373.148C446.943 376.554 439.102 367.31 439.102 367.31C417.177 349.412 416.927 311.824 439.102 303.323C445.595 300.839 451.263 301.223 455.883 302.759C463.974 305.448 472.664 305.448 480.755 302.759C485.375 301.223 491.043 300.839 497.536 303.323C500.558 304.475 503.155 306.165 505.327 308.29L505.577 308.546C519.186 322.015 516.34 351.896 497.536 367.285Z" fill="#95C38B"/>
<path d="M497.536 367.284C497.536 367.284 493.641 371.868 483.877 373.404C472.589 374.377 477.534 369.768 465.273 369.768C453.012 369.768 445.745 365.646 438.128 346.39C430.512 327.135 436.68 309.007 448.741 306.907C460.803 304.807 466.896 314.589 482.179 304.423C492.717 297.407 505.327 308.238 505.327 308.238L505.577 308.494C519.187 322.014 516.34 351.896 497.536 367.284Z" fill="#A8D29F"/>
<path d="M469.767 289.367C465.298 286.628 460.753 290.468 455.484 292.593C450.215 294.693 440.101 294.667 440.101 294.667C440.101 294.667 444.271 288.522 451.089 282.403C457.906 276.283 469.767 289.367 469.767 289.367Z" fill="#A8D29F"/>
<path d="M469.769 289.367C465.549 285.834 457.783 283.785 453.987 285.399C450.192 286.986 440.128 294.667 440.128 294.667C440.128 294.667 444.298 288.522 451.115 282.403C457.933 276.283 469.769 289.367 469.769 289.367Z" fill="#82B378"/>
<path d="M467.97 308.187C465.098 301.684 466.646 293.618 468.469 288.01C469.917 283.53 472.664 277.512 474.013 274.619C474.287 274.004 475.162 274.081 475.361 274.721L475.911 276.411C476.46 278.101 476.26 279.97 475.361 281.507C472.589 286.218 467.021 297.203 469.518 306.241C469.793 307.266 468.469 309.365 467.97 308.187Z" fill="#558949"/>
<path d="M494.19 308.546C494.19 308.546 503.005 311.26 503.229 318.097C503.454 324.934 497.061 324.293 493.815 320.811C490.569 317.329 488.971 308.315 494.19 308.546Z" fill="#D1F2C9"/>
<path d="M641.672 376.4H0.74915C0.324632 376.4 0 376.041 0 375.632V375.299C0 374.863 0.349603 374.53 0.74915 374.53H641.672C642.097 374.53 642.421 374.889 642.421 375.299V375.632C642.421 376.067 642.097 376.4 641.672 376.4Z" fill="#2E3552"/>
<path d="M274.439 278.818C274.439 278.818 269.17 289.674 269.819 289.879C270.443 290.084 335.37 304.141 369.731 286.218L366.16 276.949C366.135 276.949 330.675 292.824 274.439 278.818Z" fill="#65C2E1"/>
<path d="M332.797 180.75C300.958 173.427 269.644 191.145 261.203 220.566C260.679 222.435 261.878 224.406 263.85 224.867C265.823 225.328 267.796 224.253 268.32 222.409C275.862 196.65 303.356 181.159 331.299 187.586C360.416 194.295 379.145 222.307 373.076 250.037L380.243 251.702C387.135 220.182 365.86 188.38 332.797 180.75Z" fill="#FF6E87"/>
<path d="M366.284 246.504L372.877 261.458C373.401 262.661 375.024 262.994 375.948 262.072L387.111 251.215C388.01 250.345 387.535 248.834 386.262 248.552L368.132 244.378C366.834 244.071 365.76 245.3 366.284 246.504Z" fill="#FF6E87"/>
<path d="M306.702 316.381C338.541 323.704 369.856 305.985 378.296 276.565C378.82 274.696 377.622 272.724 375.649 272.263C373.676 271.802 371.703 272.878 371.179 274.721C363.638 300.48 336.144 315.972 308.2 309.545C279.083 302.836 260.355 274.824 266.423 247.093L259.256 245.429C252.364 276.923 273.64 308.751 306.702 316.381Z" fill="#FF6E87"/>
<path d="M273.215 250.627L266.622 235.673C266.098 234.47 264.475 234.137 263.551 235.059L252.389 245.915C251.49 246.786 251.964 248.297 253.238 248.578L271.367 252.752C272.666 253.059 273.739 251.83 273.215 250.627Z" fill="#FF6E87"/>
<path d="M323.409 258.411C323.409 259.718 322.834 260.768 322.11 260.768C321.386 260.768 320.811 259.718 320.811 258.411C320.811 257.105 321.386 256.055 322.11 256.055C322.809 256.055 323.409 257.105 323.409 258.411Z" fill="#ED985F"/>
<defs>
<filter id="filter0_b" x="71.0161" y="-4" width="566.984" height="384.844" filterUnits="userSpaceOnUse" color-interpolation-filters="sRGB">
<feFlood flood-opacity="0" result="BackgroundImageFix"/>
<feGaussianBlur in="BackgroundImage" stdDeviation="2"/>
<feComposite in2="SourceAlpha" operator="in" result="effect1_backgroundBlur"/>
<feBlend mode="normal" in="SourceGraphic" in2="effect1_backgroundBlur" result="shape"/>
</filter>
<linearGradient id="paint0_linear" x1="354.5" y1="0" x2="354.5" y2="377" gradientUnits="userSpaceOnUse">
<stop stop-color="white" stop-opacity="0.2"/>
<stop offset="1" stop-color="white" stop-opacity="0"/>
</linearGradient>
<linearGradient id="paint1_linear" x1="-42.7627" y1="-27.1607" x2="37.9436" y2="432.312" gradientUnits="userSpaceOnUse">
<stop stop-color="white"/>
<stop offset="1" stop-color="white" stop-opacity="0"/>
</linearGradient>
</defs>
</svg>
