
<svg width="220" height="64" viewBox="0 0 220 64" fill="none" xmlns="http://www.w3.org/2000/svg">
    <path fill-rule="evenodd" clip-rule="evenodd" d="M213.097 0H7.62925C3.70798 0 0.525391 3.18063 0.525391 7.1035V56.1243C0.525391 60.0458 3.70661 63.2278 7.63062 63.2278H213.099C217.023 63.2278 220.204 60.0458 220.204 56.1243V7.1035C220.204 3.18063 217.024 0 213.097 0Z" fill="#5EA7EA"/>
    <path fill-rule="evenodd" clip-rule="evenodd" d="M48.273 38.7951L55.2244 34.919C57.1604 33.8414 57.1604 32.0779 55.2272 30.9947L48.2057 27.0705L42.3979 33.0565L48.2744 38.7937L48.273 38.7951Z" fill="url(#paint0_linear)"/>
    <path fill-rule="evenodd" clip-rule="evenodd" d="M42.3995 33.0565C42.3995 33.0565 28.4129 47.3102 24.2019 51.53C24.5424 51.5987 24.9255 51.574 25.3346 51.4571L30.438 48.7329L48.1565 38.8556L48.2691 38.7923L42.3954 33.0551L42.3995 33.0565Z" fill="url(#paint1_linear)"/>
    <path fill-rule="evenodd" clip-rule="evenodd" d="M24.0122 14.4125C23.1747 14.6874 22.6213 15.5396 22.6213 16.8482V49.0256C22.6213 50.418 23.2694 51.3156 24.203 51.5272L42.3993 33.0565L24.0108 14.4125H24.0122Z" fill="url(#paint2_linear)"/>
    <path fill-rule="evenodd" clip-rule="evenodd" d="M26.1403 14.748C25.4017 14.3356 24.7207 14.2257 24.1523 14.3576C24.1015 14.3714 24.0603 14.3989 24.0122 14.4126L42.3966 33.0579L48.2071 27.0705L26.1403 14.748Z" fill="url(#paint3_linear)"/>
    <path fill-rule="evenodd" clip-rule="evenodd" d="M128.138 43.0339C128.772 42.3879 128.824 41.4862 128.824 40.9804C128.824 38.9543 127.641 35.804 125.355 35.804C124.638 35.804 123.868 36.1723 123.426 36.7345C122.959 37.3228 122.819 38.0815 122.819 38.8141C122.819 40.6972 123.897 43.8215 126.265 43.8215C126.956 43.8243 127.697 43.4861 128.139 43.0353L128.138 43.0339ZM171.49 29.385L172.935 29.4056C172.893 35.6321 172.877 41.8587 172.907 48.0853C172.436 48.0908 171.965 48.0963 171.493 48.099C171.483 41.8614 171.487 35.6253 171.49 29.3863V29.385ZM161.797 34.5119C163.87 33.7862 166.341 34.3882 167.806 36.0651C169.053 37.4864 169.527 39.4492 169.505 41.3213C169.519 43.2868 168.99 45.3816 167.577 46.7973C166.072 48.3808 163.616 48.8344 161.616 48.0729C160.514 47.6633 159.597 46.8592 158.887 45.9245C158.929 48.3753 158.915 50.8233 158.897 53.2727C158.417 53.2631 157.94 53.2521 157.464 53.2452C157.491 47.0104 157.45 40.7783 157.481 34.5463L158.901 34.5683C158.915 35.261 158.915 35.951 158.893 36.6438C159.652 35.6844 160.634 34.8844 161.8 34.5133L161.797 34.5119ZM162.283 35.6596C160.932 36.0527 159.729 36.9998 158.974 38.2025C158.812 39.8299 158.96 41.4903 158.901 43.1315C158.937 43.6401 158.782 44.2449 159.14 44.671C159.84 45.6235 160.788 46.3987 161.868 46.8482C163.413 47.4832 165.291 47.0544 166.435 45.8311C167.627 44.5871 168.014 42.7659 167.977 41.0793C167.935 39.4382 167.458 37.6788 166.189 36.5819C165.159 35.6115 163.622 35.3036 162.284 35.6583L162.283 35.6596ZM178.917 34.4638C180.715 34.0212 182.751 34.0899 184.362 35.0988C185.467 35.7723 186.133 37.0644 186.133 38.3661C186.161 40.7935 186.122 43.2208 186.147 45.6482C186.15 46.4592 186.314 47.2606 186.494 48.0495C185.945 48.0536 185.401 48.0537 184.855 48.0468C184.72 47.3183 184.612 46.5815 184.567 45.8434C183.464 47.2262 181.823 48.2296 180.049 48.2983C178.731 48.367 177.262 48.1911 176.264 47.2193C175.275 46.2846 174.973 44.7727 175.271 43.4669C175.635 42.1391 176.826 41.2677 178.039 40.8223C180.134 40.0251 182.401 40.41 184.582 40.3C184.547 39.0712 184.815 37.6444 183.936 36.641C182.913 35.4589 181.197 35.3449 179.768 35.5744C178.48 35.7586 177.266 36.7331 177.14 38.1173C176.659 38.1173 176.179 38.1214 175.698 38.1283C175.598 36.2383 177.291 34.9119 178.911 34.4624L178.917 34.4638ZM177.156 43.1301C176.432 44.0854 176.651 45.5905 177.579 46.33C178.54 47.1492 179.891 47.0489 181.053 46.8798C182.53 46.5266 184.046 45.585 184.562 44.0511C184.631 43.1824 184.562 42.3109 184.58 41.4395C183.285 41.4436 181.992 41.4092 180.702 41.4532C179.375 41.5151 177.986 42.0264 177.156 43.1301ZM187.701 34.5339C188.226 34.5476 188.749 34.5559 189.273 34.5641C190.863 38.509 192.513 42.4305 194.102 46.374C195.804 42.4704 197.304 38.476 198.962 34.5504C199.488 34.5573 200.015 34.5586 200.545 34.5614C198.369 39.8711 196.111 45.1452 193.923 50.4508C193.514 51.4638 193.035 52.5497 192.06 53.1201C191.096 53.7428 189.902 53.593 188.83 53.4445C188.912 52.995 188.994 52.5511 189.08 52.1044C189.95 52.3683 191.07 52.4727 191.694 51.6425C192.445 50.6089 192.806 49.3429 193.341 48.187C191.441 43.6428 189.534 39.1042 187.698 34.5353L187.701 34.5339ZM127.337 48.378C127.118 48.3505 126.98 48.3505 126.706 48.3505C126.456 48.3505 124.968 48.4083 123.809 48.8041C123.205 49.0268 121.442 49.6976 121.442 51.6989C121.442 53.6974 123.341 55.1297 126.291 55.1297C128.934 55.1297 130.339 53.8376 130.339 52.092C130.339 50.6556 129.433 49.8969 127.336 48.378H127.337ZM129.295 35.8892C129.927 36.4252 131.248 37.5482 131.248 39.6856C131.248 41.7666 130.09 42.7535 128.933 43.6813C128.576 44.0442 128.164 44.44 128.164 45.0586C128.164 45.6771 128.576 46.0139 128.878 46.2682L129.872 47.0516C131.083 48.0963 132.184 49.0529 132.184 50.9937C132.184 53.6369 129.678 56.309 124.939 56.309C120.943 56.309 119.016 54.3682 119.016 52.2885C119.016 51.2741 119.51 49.8391 121.137 48.8564C122.844 47.7842 125.16 47.6468 126.398 47.5602C126.014 47.0516 125.572 46.5197 125.572 45.6496C125.572 45.1713 125.709 44.8895 125.846 44.55C125.544 44.5802 125.242 44.6077 124.968 44.6077C122.046 44.6077 120.393 42.3851 120.393 40.1914C120.393 38.8994 120.972 37.463 122.156 36.4252C123.726 35.1029 125.599 34.8789 127.089 34.8789H132.764L130.998 35.8905H129.295V35.8892ZM115.387 45.6551C116.046 44.7534 116.213 43.6346 116.213 42.5377C116.213 40.0636 115.056 35.3462 111.647 35.3462C110.738 35.3462 109.83 35.7119 109.17 36.3029C108.096 37.2857 107.904 38.5214 107.904 39.7296C107.904 42.5102 109.25 47.0887 112.581 47.0887C113.651 47.0887 114.754 46.5527 115.386 45.6565L115.387 45.6551ZM111.949 47.9299C107.575 47.9299 105.238 44.4455 105.238 41.2993C105.238 37.6211 108.18 34.4762 112.364 34.4762C116.404 34.4762 118.936 37.7063 118.936 41.1055C118.936 44.4181 116.433 47.9299 111.948 47.9299H111.949ZM100.479 45.6551C101.141 44.7534 101.306 43.6346 101.306 42.5377C101.306 40.0636 100.152 35.3462 96.7404 35.3462C95.8342 35.3462 94.9225 35.7119 94.2621 36.3029C93.1884 37.2857 92.9989 38.5214 92.9989 39.7296C92.9989 42.5102 94.3445 47.0887 97.6754 47.0887C98.7463 47.0887 99.8488 46.5527 100.479 45.6565V45.6551ZM97.0424 47.9299C92.6667 47.9299 90.3285 44.4455 90.3285 41.2993C90.3285 37.6211 93.2736 34.4762 97.4543 34.4762C101.499 34.4762 104.028 37.7063 104.028 41.1055C104.028 44.4181 101.527 47.9299 97.0424 47.9299ZM88.2278 47.4901L84.2736 48.422C82.6672 48.6749 81.231 48.9004 79.7098 48.9004C72.0759 48.9004 69.1748 43.1714 69.1748 38.6781C69.1748 33.202 73.2938 28.119 80.3468 28.119C81.8434 28.119 83.2782 28.3444 84.5756 28.7101C86.653 29.3039 87.6196 30.0379 88.2278 30.4626L85.9308 32.692L84.9642 32.9188L85.6562 31.7876C84.7157 30.8571 83.0008 29.1348 79.7386 29.1348C75.367 29.1348 72.0773 32.5244 72.0773 37.4644C72.0773 42.77 75.8366 47.7691 81.8667 47.7691C83.6379 47.7691 84.5482 47.4035 85.3816 47.064V42.5198L81.205 42.7439L83.4155 41.5302H89.2781L88.5601 42.2353C88.3637 42.4044 88.3404 42.4635 88.2814 42.6889C88.2539 42.9432 88.2264 43.761 88.2264 44.0428V47.4901H88.2278ZM138.037 46.6736C137.124 46.5912 136.932 46.4207 136.932 45.3197V29.3396L136.946 29.1582C137.056 28.1685 137.333 28.0036 138.19 27.4922H134.235L132.162 28.5094H134.277V28.5231L134.274 28.5135V45.9424C134.274 46.5059 134.164 46.5912 133.527 47.4365H138.423L139.446 46.818C138.979 46.7602 138.508 46.7327 138.039 46.675L138.037 46.6736ZM146.709 38.5777C147.231 38.3812 147.505 38.2149 147.505 37.8217C147.505 36.7015 146.27 35.4081 144.787 35.4081C143.688 35.4081 141.629 36.2795 141.629 39.3076C141.629 39.7846 141.684 40.289 141.711 40.7921L146.709 38.5764V38.5777ZM149.29 46.9348C148.991 47.1039 148.689 47.3004 148.387 47.4406C147.481 47.8598 146.544 47.9712 145.723 47.9712C144.844 47.9712 143.471 47.9162 142.071 46.8784C140.121 45.4764 139.27 43.0655 139.27 40.9625C139.27 36.619 142.73 34.4858 145.558 34.4858C146.547 34.4858 147.563 34.7401 148.387 35.272C149.76 36.1957 150.117 37.4025 150.309 38.0485L143.856 40.7124L141.739 40.8773C142.425 44.4414 144.787 46.5128 147.398 46.5128C148.799 46.5128 149.815 46.0111 150.748 45.5342L149.293 46.9362L149.29 46.9348Z" fill="white"/>
    <path fill-rule="evenodd" clip-rule="evenodd" d="M74.5093 11.6266C75.1299 11.2142 75.9139 10.9256 76.912 10.9256C78.4937 10.9256 79.5866 11.7641 79.5866 13.199C79.5866 14.3426 78.7628 15.2251 77.7097 15.4739V15.5041C78.9784 15.6416 79.9244 16.4938 79.9381 17.8339C79.9381 19.7637 78.2905 20.5362 76.6292 20.5362C75.8054 20.5362 74.9541 20.3575 74.2539 19.9314L74.5628 18.9926C75.0653 19.2813 75.8617 19.5562 76.6168 19.5562C77.9541 19.5562 78.6969 18.814 78.6969 17.7927C78.6969 16.3989 77.3884 16.0003 76.2255 16.0003H75.6873V15.089H76.2132C77.4173 15.089 78.3619 14.333 78.3619 13.3805C78.3619 12.4293 77.7001 11.9056 76.728 11.9056C76.0251 11.9056 75.3235 12.1943 74.8237 12.5104L74.5134 11.628L74.5093 11.6266ZM83.3115 17.4601L82.3642 20.3823H81.1504L84.2534 11.0905H85.6593L88.7664 20.3823H87.5101L86.5381 17.4601H83.3115ZM86.3088 16.5226L85.4026 13.8478C85.2008 13.243 85.0662 12.6905 84.9317 12.153H84.9042C84.7669 12.6891 84.6337 13.2692 84.4456 13.8341L83.5532 16.5226H86.3074H86.3088ZM95.273 11.0878V12.0953H91.614V20.3795H90.4236V11.0878H95.273ZM96.6213 11.2005C97.1884 11.1043 97.9298 11.0218 98.8758 11.0218C100.036 11.0218 100.886 11.2967 101.427 11.7943C101.913 12.2341 102.223 12.9104 102.223 13.7379C102.223 14.5791 101.98 15.2416 101.52 15.724C100.886 16.3976 99.8863 16.7439 98.7385 16.7439C98.387 16.7439 98.063 16.7302 97.7911 16.6615V20.3836H96.6186V11.2019L96.6213 11.2005ZM97.7952 15.6814C98.052 15.7502 98.376 15.7776 98.7673 15.7776C100.186 15.7776 101.051 15.0601 101.051 13.8052C101.051 12.564 100.186 11.9716 98.9032 11.9716C98.3883 11.9716 97.997 12.0128 97.7952 12.0678V15.6828V15.6814ZM104.314 11.0878L106.124 15.0739C106.353 15.6237 106.57 16.1625 106.772 16.7013H106.813C106.974 16.234 107.149 15.6952 107.366 15.0327L108.798 11.0905H110.041L108.126 15.8876C107.64 17.1288 107.071 18.55 106.423 19.4036C105.842 20.1624 105.181 20.5486 104.37 20.5486C104.06 20.5486 103.857 20.5211 103.709 20.4661L103.819 19.4875C103.924 19.515 104.06 19.5287 104.262 19.5287C105.196 19.5287 105.749 18.605 106.047 17.9439C106.14 17.7377 106.116 17.6003 106.006 17.3776L102.978 11.0878H104.314ZM111.145 11.6266C111.765 11.2142 112.548 10.9256 113.548 10.9256C115.129 10.9256 116.221 11.7641 116.221 13.199C116.221 14.3426 115.397 15.2251 114.344 15.4739V15.5041C115.614 15.6416 116.559 16.4938 116.574 17.8339C116.574 19.7637 114.926 20.5362 113.265 20.5362C112.441 20.5362 111.59 20.3575 110.887 19.9314L111.197 18.9926C111.697 19.2813 112.493 19.5562 113.25 19.5562C114.586 19.5562 115.327 18.814 115.327 17.7927C115.327 16.3989 114.018 16.0003 112.856 16.0003H112.316V15.089H112.843C114.046 15.089 114.989 14.333 114.989 13.3805C114.989 12.4293 114.33 11.9056 113.355 11.9056C112.655 11.9056 111.951 12.1943 111.452 12.5104L111.143 11.628L111.145 11.6266ZM119.582 11.0878V15.0052C119.582 16.4663 119.554 17.6937 119.475 18.9335L119.516 18.9473C119.961 17.981 120.528 16.9762 121.188 15.8725L124.133 11.0892H125.307V20.3809H124.201V16.4264C124.201 14.9227 124.214 13.8203 124.31 12.6492L124.269 12.6355C123.823 13.6526 123.201 14.7303 122.58 15.7515L119.731 20.3836H118.474V11.0878H119.58H119.582ZM129.422 12.1104H126.653V11.0878H133.391V12.1104H130.61V20.3795H129.422V12.1118V12.1104ZM139.439 16.0264H135.916V19.3761H139.86V20.3823H134.725V11.0905H139.654V12.0967H135.915V15.0327H139.438V16.0264H139.439ZM146.712 11.0878V14.9777H151.115V11.0878H152.303V20.3795H151.115V16.0251H146.714V20.3823H145.526V11.0878H146.715H146.712ZM156.149 17.4601L155.201 20.3823H153.988L157.093 11.0905H158.497L161.604 20.3823H160.347L159.375 17.4601H156.149ZM159.147 16.5226L158.241 13.8478C158.039 13.243 157.903 12.6905 157.769 12.153H157.741C157.607 12.6891 157.472 13.2692 157.283 13.8341L156.39 16.5226H159.146H159.147Z" fill="white"/>
    <defs>
        <linearGradient id="paint0_linear" x1="44.6897" y1="34.1911" x2="57.3629" y2="27.5252" gradientUnits="userSpaceOnUse">
            <stop stop-color="#FFA28B"/>
            <stop offset="1" stop-color="#FFC473"/>
        </linearGradient>
        <linearGradient id="paint1_linear" x1="24.5997" y1="45.5418" x2="45.7918" y2="32.8411" gradientUnits="userSpaceOnUse">
            <stop stop-color="#7D17FF"/>
            <stop offset="1" stop-color="#FF2E64"/>
        </linearGradient>
        <linearGradient id="paint2_linear" x1="21.7952" y1="5.34022" x2="56.2503" y2="38.197" gradientUnits="userSpaceOnUse">
            <stop stop-color="#0053B9"/>
            <stop offset="1" stop-color="#2EFFBC"/>
        </linearGradient>
        <linearGradient id="paint3_linear" x1="23.4448" y1="13.6912" x2="40.9615" y2="35.5327" gradientUnits="userSpaceOnUse">
            <stop stop-color="#00D4AB"/>
            <stop offset="1" stop-color="#C8FFA2"/>
        </linearGradient>
    </defs>
</svg>
