<svg width="220" height="64" viewBox="0 0 220 64" fill="none" xmlns="http://www.w3.org/2000/svg">
    <path fill-rule="evenodd" clip-rule="evenodd" d="M212.572 0H7.10386C3.18259 0 0 3.17926 0 7.1035V56.1243C0 60.0458 3.18122 63.2278 7.10523 63.2278H212.573C216.497 63.2278 219.679 60.0458 219.679 56.1243V7.1035C219.679 3.17926 216.497 0 212.572 0Z" fill="#FF6F87"/>
    <path fill-rule="evenodd" clip-rule="evenodd" d="M42.1372 15.3561C44.7569 12.1438 44.2104 8.80786 44.2104 8.80786C44.2104 8.80786 40.5445 8.82436 37.9084 12.3734C35.5647 15.5265 36.1619 18.2247 36.1619 18.2247C36.1619 18.2247 39.3404 18.7855 42.1345 15.3547L42.1372 15.3561ZM47.1665 30.517C47.1665 25.0189 51.5079 22.7551 51.5079 22.7551C51.5079 22.7551 49.2864 18.659 43.6489 18.659C40.3715 18.659 37.8548 20.5627 36.4983 20.5627C34.9194 20.5627 32.562 18.7717 29.5235 18.7717C24.8471 18.7717 19.8632 23.0465 19.8632 31.1946C19.8632 39.4733 25.7505 49.774 30.4132 49.774C32.0388 49.774 34.5377 48.0998 37.053 48.0998C39.5244 48.0998 41.345 49.7135 43.6914 49.7135C48.7962 49.7135 52.5747 38.8548 52.5747 38.8548C52.5747 38.8548 47.1692 36.7174 47.1692 30.517H47.1665Z" fill="white"/>
    <path fill-rule="evenodd" clip-rule="evenodd" d="M72.5654 10.6938C73.2931 10.2402 74.2871 9.86218 75.6066 9.86218C77.6853 9.86218 78.9882 10.9288 78.9882 12.515C78.9882 13.8318 78.0889 14.7582 76.8642 15.0579V15.0881C78.2454 15.2434 79.3631 16.1877 79.3631 17.6447C79.3631 19.936 77.2212 20.7855 75.2812 20.7855C74.2555 20.7855 73.1709 20.5655 72.3155 20.0625L72.7686 18.5725C73.2793 18.8543 74.2885 19.2144 75.2029 19.2144C76.569 19.2144 77.3448 18.5546 77.3448 17.5512C77.3448 16.2015 76.0088 15.8565 74.8596 15.8565H74.0386V14.4132H74.8624C76.0706 14.4132 77.0043 13.7672 77.0043 12.8119C77.0043 11.9487 76.3356 11.4305 75.2812 11.4305C74.4752 11.4305 73.6198 11.7604 73.0322 12.0765L72.5654 10.6924V10.6938ZM85.8724 20.6109L85.7488 19.7628H85.7022C85.2353 20.358 84.4445 20.7827 83.4669 20.7827C81.9457 20.7827 81.0917 19.6694 81.0917 18.5065C81.0917 16.5767 82.7859 15.6035 85.5786 15.62V15.4936C85.5786 14.9919 85.3768 14.1603 84.0408 14.1603C83.2967 14.1603 82.5209 14.394 82.0088 14.7238L81.6381 13.4689C82.1955 13.1212 83.1731 12.7927 84.3676 12.7927C86.7868 12.7927 87.4843 14.3459 87.4843 16.009V18.7718C87.4843 19.4591 87.5173 20.1367 87.5941 20.6068H85.8724V20.6095V20.6109ZM85.6253 16.8763C84.2756 16.8447 82.9891 17.143 82.9891 18.3058C82.9891 19.0563 83.4697 19.4027 84.0738 19.4027C84.8344 19.4027 85.3919 18.901 85.5635 18.3512C85.6088 18.211 85.6239 18.0543 85.6239 17.9292V16.8777L85.6253 16.8763ZM95.0989 12.9686V14.4902H92.0124V20.6095H90.104V12.9672H95.0989V12.9686ZM96.8783 15.5101C96.8783 14.5067 96.8481 13.6902 96.8179 12.97H98.4929L98.5863 14.1466H98.6179C99.1767 13.2834 100.06 12.7968 101.209 12.7968C102.947 12.7968 104.389 14.3046 104.389 16.6894C104.389 19.4522 102.667 20.7855 100.945 20.7855C99.9978 20.7855 99.2083 20.3772 98.8197 19.7642H98.7881V23.7173H96.8824V15.5087L96.8783 15.5101ZM98.7868 17.4069C98.7868 17.5993 98.8032 17.7712 98.8499 17.943C99.0353 18.7264 99.719 19.29 100.525 19.29C101.736 19.29 102.45 18.2729 102.45 16.7664C102.45 15.4166 101.798 14.3197 100.573 14.3197C99.7836 14.3197 99.0531 14.897 98.8678 15.7465C98.8211 15.9018 98.7895 16.0764 98.7895 16.2331V17.4083L98.7868 17.4069ZM107.533 12.9686L108.897 17.0647C109.053 17.5347 109.208 18.1148 109.316 18.5533H109.362C109.485 18.1134 109.625 17.5499 109.765 17.0468L110.943 12.9672H112.992L111.097 18.1766C110.059 21.0329 109.36 22.3043 108.461 23.0892C107.717 23.7627 106.941 24.0142 106.46 24.0788L106.025 22.4431C106.352 22.3662 106.756 22.193 107.143 21.9112C107.5 21.6775 107.92 21.2212 108.184 20.7044C108.26 20.5628 108.307 20.4528 108.307 20.358C108.307 20.281 108.293 20.1711 108.197 19.9828L105.438 12.9686H107.53H107.533ZM115.503 16.0599H116.417C117.461 16.0599 118.065 15.6365 118.065 15.0881C118.065 14.5383 117.553 14.1617 116.7 14.1617C116.063 14.1617 115.364 14.3816 114.837 14.7115L114.432 13.5651C115.253 13.0469 116.279 12.8119 117.256 12.8119C118.529 12.8119 120.08 13.3136 120.08 14.8352C120.08 15.8248 119.21 16.3746 118.419 16.563V16.5959C119.427 16.7059 120.421 17.3176 120.421 18.446C120.421 20.2192 118.449 20.769 116.898 20.769C115.904 20.769 114.913 20.5188 114.166 20.079L114.602 18.8556C115.129 19.1374 115.937 19.3725 116.696 19.3725C117.751 19.3725 118.324 18.9326 118.324 18.3361C118.324 17.5361 117.503 17.2846 116.434 17.2846H115.503V16.0613V16.0599ZM124.389 12.9686V15.7149C124.389 16.9217 124.342 17.7395 124.279 18.8048H124.324C124.728 17.9114 124.961 17.3478 125.349 16.5465L127.21 12.97H129.524V20.6123H127.707V17.8811C127.707 16.6578 127.754 16.0942 127.831 14.651H127.769C127.399 15.5582 127.149 16.108 126.775 16.8461C126.185 17.9773 125.504 19.356 124.853 20.6123H122.571V12.97H124.388L124.389 12.9686ZM137.711 12.9686V14.4599H135.446V20.6109H133.534V14.4599H131.269V12.9686H137.708H137.711ZM140.608 17.3327C140.653 18.7113 141.724 19.3092 142.933 19.3092C143.818 19.3092 144.454 19.1828 145.029 18.9629L145.306 20.2961C144.654 20.5628 143.755 20.7662 142.67 20.7662C140.218 20.7662 138.775 19.246 138.775 16.9066C138.775 14.7898 140.048 12.7968 142.468 12.7968C144.919 12.7968 145.725 14.8338 145.725 16.5135C145.725 16.875 145.695 17.1595 145.665 17.3299H140.607L140.608 17.3327ZM143.927 15.9815C143.94 15.275 143.631 14.1122 142.359 14.1122C141.181 14.1122 140.684 15.1981 140.607 15.9815H143.925H143.927ZM151.692 13.0621C152.251 12.9686 153.398 12.8738 154.438 12.8738C155.711 12.8738 158.008 13.0469 158.008 14.8036C158.008 15.7767 157.262 16.3265 156.457 16.4997V16.5313C157.573 16.7032 158.347 17.3286 158.347 18.3979C158.347 20.5009 155.619 20.7044 154.098 20.7044C153.15 20.7044 152.141 20.6425 151.692 20.5944V13.0621ZM153.538 19.4494C153.848 19.4824 154.08 19.4962 154.467 19.4962C155.336 19.4962 156.392 19.2625 156.392 18.3663C156.392 17.5031 155.554 17.2213 154.36 17.2213H153.536V19.4481L153.538 19.4494ZM153.554 16.0599H154.343C155.321 16.0599 156.128 15.7781 156.128 15.0565C156.128 14.4448 155.6 14.1136 154.467 14.1136C154.096 14.1136 153.849 14.1452 153.553 14.1754V16.0585L153.554 16.0599Z" fill="white"/>
    <path fill-rule="evenodd" clip-rule="evenodd" d="M84.3429 47.7154H80.7799L78.8276 41.4517H72.0409L70.1805 47.7154H66.7095L73.4331 26.3898H77.5877L84.3429 47.7154ZM78.2385 38.8223L76.4729 33.2555C76.2875 32.6864 75.9374 31.3477 75.4198 29.2378H75.358C75.1521 30.145 74.8225 31.4851 74.3667 33.2555L72.6312 38.8223H78.2385ZM101.637 39.838C101.637 42.4538 100.945 44.5197 99.5611 46.0371C98.3199 47.3883 96.7822 48.0632 94.9424 48.0632C92.9584 48.0632 91.5346 47.3347 90.6669 45.8804H90.6037V53.9805H87.2563V37.3997C87.2563 35.7557 87.2152 34.0692 87.1328 32.3387H90.0751L90.2618 34.7757H90.3264C91.4426 32.9407 93.1355 32.0239 95.4092 32.0239C97.1844 32.0239 98.6673 32.7387 99.8535 34.1737C101.044 35.6114 101.638 37.5 101.638 39.8394L101.637 39.838ZM98.2279 39.9618C98.2279 38.4663 97.8984 37.2333 97.2366 36.2616C96.5144 35.2485 95.5423 34.7427 94.3259 34.7427C93.498 34.7427 92.7469 35.0245 92.0783 35.5812C91.4055 36.142 90.9662 36.8732 90.7602 37.7804C90.6586 38.2065 90.6064 38.5501 90.6064 38.825V41.3871C90.6064 42.5074 90.9442 43.4517 91.6156 44.2214C92.2884 44.9911 93.1602 45.376 94.2339 45.376C95.4943 45.376 96.4746 44.8812 97.1776 43.8915C97.8778 42.8977 98.2307 41.5892 98.2307 39.9645L98.2279 39.9618ZM118.96 39.838C118.96 42.4538 118.268 44.5197 116.883 46.0371C115.644 47.3883 114.104 48.0632 112.267 48.0632C110.283 48.0632 108.858 47.3347 107.991 45.8804H107.928V53.9805H104.581V37.3997C104.581 35.7557 104.54 34.0692 104.457 32.3387H107.4L107.586 34.7757H107.648C108.763 32.9407 110.456 32.0239 112.731 32.0239C114.506 32.0239 115.989 32.7387 117.179 34.1737C118.364 35.6114 118.959 37.5 118.959 39.8394L118.96 39.838ZM115.552 39.9618C115.552 38.4663 115.223 37.2333 114.56 36.2616C113.836 35.2485 112.868 34.7427 111.649 34.7427C110.821 34.7427 110.073 35.0245 109.4 35.5812C108.727 36.142 108.288 36.8732 108.082 37.7804C107.982 38.2065 107.928 38.5501 107.928 38.825V41.3871C107.928 42.5074 108.263 43.4517 108.93 44.2214C109.603 44.9911 110.476 45.376 111.553 45.376C112.816 45.376 113.795 44.8812 114.496 43.8915C115.199 42.8977 115.554 41.5892 115.554 39.9645L115.552 39.9618ZM138.329 41.7363C138.329 43.5506 137.711 45.0255 136.475 46.165C135.113 47.4103 133.219 48.0343 130.784 48.0343C128.535 48.0343 126.734 47.5903 125.371 46.7038L126.146 43.8558C127.615 44.7629 129.227 45.2165 130.983 45.2165C132.244 45.2165 133.224 44.9251 133.93 44.3451C134.63 43.765 134.982 42.9843 134.982 42.0153C134.982 41.1493 134.693 40.4208 134.114 39.8298C133.537 39.2388 132.576 38.689 131.231 38.1804C127.574 36.7866 125.748 34.7468 125.748 32.0638C125.748 30.3113 126.388 28.8722 127.67 27.7547C128.947 26.6344 130.652 26.075 132.783 26.075C134.686 26.075 136.265 26.4131 137.524 27.088L136.687 29.8728C135.512 29.2199 134.18 28.8914 132.691 28.8914C131.513 28.8914 130.595 29.1883 129.934 29.778C129.377 30.3058 129.097 30.9463 129.097 31.7092C129.097 32.5517 129.415 33.2486 130.055 33.7984C130.614 34.3029 131.626 34.8513 133.095 35.4423C134.891 36.1805 136.212 37.045 137.06 38.0347C137.909 39.0243 138.33 40.2587 138.33 41.7321L138.329 41.7363ZM149.395 34.9022H145.706V42.3685C145.706 44.2681 146.355 45.2165 147.656 45.2165C148.256 45.2165 148.751 45.1616 149.144 45.0571L149.237 47.6522C148.578 47.9037 147.711 48.0302 146.634 48.0302C145.312 48.0302 144.278 47.6178 143.534 46.7972C142.792 45.9725 142.418 44.5925 142.418 42.6517V34.898H140.218V32.3359H142.415V29.5182L145.703 28.5065V32.3359H149.392V34.9022H149.395ZM166.036 39.9013C166.036 42.2654 165.374 44.2035 164.052 45.7224C162.665 47.2852 160.825 48.0645 158.532 48.0645C156.325 48.0645 154.565 47.3141 153.252 45.8172C151.938 44.319 151.282 42.4318 151.282 40.1542C151.282 37.7722 151.957 35.8203 153.311 34.3029C154.663 32.784 156.488 32.0253 158.78 32.0253C160.99 32.0253 162.768 32.7744 164.111 34.2726C165.393 35.7255 166.033 37.6017 166.033 39.9013H166.036ZM162.565 40.0112C162.565 38.5955 162.268 37.3777 161.667 36.3619C160.967 35.1345 159.962 34.5228 158.663 34.5228C157.317 34.5228 156.296 35.1372 155.594 36.3619C154.993 37.379 154.696 38.6134 154.696 40.0731C154.696 41.4916 154.996 42.708 155.596 43.7211C156.319 44.9471 157.331 45.5588 158.634 45.5588C159.911 45.5588 160.913 44.9348 161.638 43.6867C162.256 42.6558 162.566 41.4256 162.566 40.0099L162.565 40.0112ZM176.914 35.3434C176.585 35.2815 176.23 35.2472 175.86 35.2472C174.683 35.2472 173.773 35.7008 173.131 36.6107C172.574 37.4107 172.294 38.425 172.294 39.6484V47.714H168.949L168.981 37.1797C168.981 35.4066 168.94 33.7929 168.855 32.3387H171.769L171.893 35.2802H171.985C172.339 34.2685 172.897 33.4562 173.66 32.8445C174.401 32.2947 175.209 32.0198 176.077 32.0198C176.387 32.0198 176.667 32.0432 176.914 32.083V35.3434ZM191.88 39.3006C191.88 39.9123 191.838 40.4277 191.756 40.8497H181.717C181.758 42.3685 182.243 43.53 183.175 44.3327C184.022 45.0475 185.115 45.4076 186.456 45.4076C187.945 45.4076 189.301 45.1643 190.52 44.6791L191.042 47.0515C189.618 47.6865 187.936 48.0027 185.995 48.0027C183.661 48.0027 181.827 47.3017 180.492 45.8997C179.16 44.4977 178.494 42.6146 178.494 40.2504C178.494 37.933 179.112 36.0004 180.355 34.4609C181.655 32.817 183.411 31.9951 185.622 31.9951C187.791 31.9951 189.436 32.817 190.551 34.4609C191.438 35.7667 191.882 37.3818 191.882 39.2992L191.88 39.3006ZM188.689 38.4141C188.708 37.401 188.491 36.5268 188.038 35.7887C187.459 34.8362 186.569 34.3633 185.37 34.3633C184.277 34.3633 183.386 34.8266 182.707 35.7557C182.149 36.4952 181.818 37.3804 181.715 38.4127H188.687V38.4154L188.689 38.4141Z" fill="white"/>
</svg>