<svg width="36" height="37" viewBox="0 0 36 37" fill="none" xmlns="http://www.w3.org/2000/svg">
    <rect width="36" height="36" rx="18" fill="white"/>
    <path d="M22.6904 8.94141H13.2206C10.8509 8.94141 8.92285 10.8716 8.92285 13.244V22.8112C8.92285 25.1836 10.8509 27.1138 13.2206 27.1138H22.6904C25.0601 27.1138 26.9882 25.1836 26.9882 22.8112V13.244C26.9882 10.8716 25.0601 8.94141 22.6904 8.94141ZM17.9736 23.7562C14.7614 23.7562 12.1482 21.1679 12.1482 17.9865C12.1482 14.8051 14.7618 12.2167 17.9736 12.2167C21.1854 12.2167 23.799 14.8051 23.799 17.9865C23.799 21.1679 21.1858 23.7562 17.9736 23.7562ZM23.9027 13.3529C23.1456 13.3529 22.532 12.7386 22.532 11.9807C22.532 11.2228 23.1456 10.6085 23.9027 10.6085C24.6597 10.6085 25.2733 11.2228 25.2733 11.9807C25.2733 12.7386 24.6597 13.3529 23.9027 13.3529Z" fill="url(#paint0_linear)"/>
    <path d="M18 0C8.05897 0 0 8.06793 0 18.02C0 27.9721 8.05897 36.04 18 36.04C27.941 36.04 36 27.9721 36 18.02C36 8.06793 27.941 0 18 0ZM29.1138 22.8119C29.1138 26.358 26.232 29.2427 22.6902 29.2427H13.2204C9.67821 29.2427 6.79672 26.3576 6.79672 22.8119V13.2446C6.79672 9.69847 9.67858 6.81378 13.2204 6.81378H22.6902C26.2324 6.81378 29.1138 9.69883 29.1138 13.2446V22.8119Z" fill="url(#paint1_linear)"/>
    <path d="M17.9735 14.3423C15.9312 14.3423 14.27 15.9776 14.27 17.9878C14.27 19.998 15.9312 21.6333 17.9735 21.6333C20.0158 21.6333 21.6771 19.998 21.6771 17.9878C21.6771 15.9776 20.0158 14.3423 17.9735 14.3423Z" fill="url(#paint2_linear)"/>
    <defs>
        <linearGradient id="paint0_linear" x1="17.9555" y1="8.94141" x2="17.9555" y2="27.1138" gradientUnits="userSpaceOnUse">
            <stop stop-color="#FA7887"/>
            <stop offset="1" stop-color="#E755BA"/>
        </linearGradient>
        <linearGradient id="paint1_linear" x1="18" y1="0" x2="18" y2="36.04" gradientUnits="userSpaceOnUse">
            <stop stop-color="#FA7887"/>
            <stop offset="1" stop-color="#E755BA"/>
        </linearGradient>
        <linearGradient id="paint2_linear" x1="17.9735" y1="14.3423" x2="17.9735" y2="21.6333" gradientUnits="userSpaceOnUse">
            <stop stop-color="#FA7887"/>
            <stop offset="1" stop-color="#E755BA"/>
        </linearGradient>
    </defs>
</svg>