<svg width="36" height="37" viewBox="0 0 36 37" fill="none" xmlns="http://www.w3.org/2000/svg">
    <rect width="36" height="36" rx="18" fill="white"/>
    <path d="M18 0C8.05897 0 0 8.06793 0 18.02C0 27.9721 8.05897 36.04 18 36.04C27.941 36.04 36 27.9721 36 18.02C36 8.06793 27.941 0 18 0ZM25.8056 20.4019C25.9473 20.5773 26.2842 20.9189 26.8171 21.4276H26.8295L26.8419 21.4397L26.8544 21.4525L26.8795 21.4773C28.0535 22.5692 28.8485 23.4905 29.265 24.2407C29.2902 24.282 29.3172 24.3346 29.3464 24.3971C29.3752 24.4596 29.4044 24.5699 29.4336 24.7282C29.4624 24.8871 29.4602 25.0282 29.4274 25.1532C29.3942 25.2778 29.2902 25.3932 29.1153 25.497C28.9405 25.6015 28.6948 25.6534 28.3783 25.6534L25.1811 25.7039C24.9814 25.7455 24.7482 25.7247 24.4817 25.6414C24.2149 25.5577 23.9988 25.466 23.8323 25.3662L23.5823 25.2156C23.3323 25.0406 23.041 24.7738 22.7081 24.4157C22.3748 24.0572 22.0897 23.7342 21.8524 23.4466C21.6152 23.159 21.3611 22.9178 21.0903 22.7212C20.8194 22.5254 20.5844 22.4607 20.3847 22.5276C20.3599 22.5363 20.3263 22.5509 20.2847 22.5714C20.2427 22.5922 20.1722 22.6522 20.0722 22.7527C19.9722 22.8528 19.8828 22.9759 19.8036 23.1214C19.7244 23.2675 19.6536 23.4843 19.5911 23.7718C19.5287 24.0591 19.5013 24.3825 19.5101 24.741C19.5101 24.8656 19.4951 24.9807 19.4663 25.0848C19.4371 25.189 19.4057 25.2661 19.3725 25.3158L19.3225 25.3783C19.1725 25.5372 18.952 25.6286 18.6607 25.6534H17.2243C16.633 25.687 16.0252 25.6184 15.401 25.4473C14.7768 25.2759 14.2289 25.0556 13.7588 24.7844C13.2879 24.514 12.8594 24.2389 12.4725 23.9597C12.0852 23.6801 11.7917 23.4408 11.592 23.2409L11.2799 22.9405C11.1967 22.8575 11.0821 22.7322 10.9364 22.5652C10.7908 22.3986 10.4933 22.0196 10.0436 21.4276C9.59389 20.8356 9.15258 20.2067 8.71966 19.5395C8.28675 18.8725 7.77681 17.993 7.18949 16.9011C6.60253 15.8095 6.05938 14.676 5.55966 13.5004C5.50965 13.3674 5.48447 13.2548 5.48447 13.1631C5.48447 13.0717 5.49688 13.0049 5.52206 12.9628L5.57207 12.8879C5.69691 12.7293 5.93417 12.65 6.28387 12.65L9.70595 12.6252C9.80597 12.642 9.90161 12.669 9.99323 12.7067C10.0848 12.7439 10.1516 12.7794 10.1933 12.8126L10.2557 12.8503C10.3889 12.9424 10.4886 13.0754 10.5554 13.2504C10.7218 13.6677 10.9134 14.099 11.1299 14.5448C11.3464 14.9906 11.5172 15.3304 11.642 15.5636L11.8417 15.9265C12.083 16.4264 12.3162 16.8601 12.5411 17.2267C12.7663 17.5935 12.9678 17.8793 13.147 18.0832C13.3259 18.2875 13.4985 18.4483 13.6654 18.5645C13.8318 18.6814 13.9734 18.7399 14.0902 18.7399C14.2067 18.7399 14.3191 18.7191 14.4275 18.6774C14.4439 18.669 14.4648 18.6482 14.4899 18.6149C14.5151 18.5817 14.5648 18.4899 14.64 18.3394C14.7148 18.1896 14.771 17.9937 14.8086 17.7518C14.8462 17.5106 14.8856 17.1729 14.9272 16.7395C14.9689 16.3058 14.9689 15.785 14.9272 15.1766C14.9104 14.843 14.8728 14.5389 14.8148 14.2638C14.7564 13.989 14.698 13.7971 14.64 13.6886L14.5648 13.5388C14.3567 13.2555 14.003 13.0761 13.5033 13.0008C13.3949 12.9848 13.4157 12.8846 13.5657 12.7012C13.7073 12.5426 13.8654 12.418 14.0402 12.3259C14.4815 12.1096 15.4766 12.0094 17.0254 12.0255C17.708 12.0343 18.2701 12.088 18.7114 12.1881C18.8779 12.2302 19.0173 12.2861 19.1297 12.357C19.2422 12.4275 19.3276 12.528 19.386 12.6566C19.444 12.786 19.4878 12.9194 19.517 13.0568C19.5462 13.1945 19.5608 13.3845 19.5608 13.6257C19.5608 13.8676 19.5568 14.0971 19.5484 14.3135C19.54 14.5302 19.5298 14.8243 19.5174 15.1949C19.505 15.5658 19.4984 15.91 19.4984 16.2265C19.4984 16.3186 19.4944 16.4932 19.486 16.7516C19.4776 17.0103 19.4751 17.2102 19.4798 17.3516C19.4838 17.4934 19.4984 17.6626 19.5232 17.8581C19.5484 18.054 19.5962 18.217 19.6671 18.3456C19.7375 18.475 19.8313 18.5769 19.9481 18.6518C20.0146 18.669 20.0854 18.6854 20.1606 18.7023C20.2354 18.7187 20.3434 18.6734 20.4851 18.5645C20.6263 18.4563 20.7848 18.3123 20.9596 18.1333C21.1344 17.9546 21.3509 17.6754 21.609 17.2957C21.8667 16.9171 22.1499 16.4688 22.458 15.9517C22.9577 15.0849 23.4031 14.1468 23.7944 13.1382C23.8276 13.0546 23.8692 12.9818 23.9192 12.9194C23.9692 12.8565 24.0148 12.8126 24.0565 12.7878L24.1065 12.7502C24.1229 12.7418 24.1437 12.7315 24.1689 12.7191C24.1941 12.707 24.2481 12.6942 24.3313 12.6815C24.4145 12.6694 24.4978 12.6672 24.5814 12.6756L28.1783 12.65C28.5028 12.6087 28.7693 12.619 28.9773 12.6811C29.1854 12.7436 29.3146 12.8126 29.3646 12.8876L29.4398 13.0125C29.6311 13.5464 29.0069 14.771 27.5665 16.6884C27.3665 16.9555 27.0956 17.31 26.7547 17.7514C26.1053 18.5853 25.7308 19.1313 25.6315 19.3904C25.4892 19.7313 25.5476 20.069 25.8056 20.4019Z" fill="url(#paint0_linear)"/>
    <defs>
        <linearGradient id="paint0_linear" x1="18" y1="0" x2="18" y2="36.04" gradientUnits="userSpaceOnUse">
            <stop stop-color="#0395FF" stop-opacity="0.5"/>
            <stop offset="1" stop-color="#00A3FF"/>
        </linearGradient>
    </defs>
</svg>